<svg width="16" height="16" viewBox="0 0 16 16" fill="none" xmlns="http://www.w3.org/2000/svg">
<g clip-path="url(#clip0_228_10221)">
<path d="M9.90195 12.5629C11.0928 10.7519 10.8925 8.29325 9.30126 6.69997C7.69658 5.09326 5.21298 4.90293 3.40006 6.12897M9.90195 12.5629C9.73054 12.8236 9.53031 13.0709 9.30126 13.3002C8.24239 14.3604 5.99693 15.2771 4.17448 14.1494C4.07306 14.0867 4.02235 14.0553 3.984 14.0401C3.91069 14.011 3.8551 14.0026 3.77648 14.0087C3.73536 14.0119 3.68878 14.024 3.5956 14.0481C3.00932 14.2003 2.71617 14.2764 2.50498 14.2333C2.13844 14.1586 1.85197 13.8718 1.77738 13.5048C1.7344 13.2934 1.81038 12.9998 1.96234 12.4128C1.98649 12.3195 1.99857 12.2728 2.00174 12.2315C2.00777 12.1528 1.9992 12.0965 1.97002 12.0232C1.95471 11.9847 1.92342 11.9343 1.86084 11.8334C0.730732 10.0127 1.60533 7.80532 2.70929 6.69997C2.92493 6.48406 3.15644 6.29373 3.40006 6.12897M9.90195 12.5629L9.99984 12.5462C10.4142 12.4467 10.8234 12.2818 11.2163 12.0386C11.3395 11.9624 11.4011 11.9243 11.4476 11.9059C11.5367 11.8706 11.6042 11.8604 11.6996 11.8678C11.7496 11.8716 11.8061 11.8863 11.9193 11.9157C12.6312 12.1004 12.9871 12.1928 13.2436 12.1405C13.6887 12.0498 14.0365 11.7016 14.1271 11.2559C14.1793 10.9991 14.087 10.6427 13.9025 9.92991C13.8732 9.81661 13.8585 9.75995 13.8547 9.7098C13.8474 9.61422 13.8578 9.54583 13.8932 9.45677C13.9118 9.41004 13.9498 9.34881 14.0258 9.22638C15.398 7.01543 14.336 4.3351 12.9955 2.99289C10.7851 0.779714 7.20135 0.779714 4.99096 2.99289C4.10777 3.87719 3.57747 4.98103 3.40006 6.12897" stroke="#FEFEFE" stroke-width="1.5"/>
<path d="M7.33317 9.99967C7.33317 10.3679 7.63165 10.6663 7.99984 10.6663C8.36803 10.6663 8.6665 10.3679 8.6665 9.99967C8.6665 9.63148 8.36803 9.33301 7.99984 9.33301C7.63165 9.33301 7.33317 9.63148 7.33317 9.99967Z" fill="#FEFEFE"/>
<path d="M5.33317 9.99967C5.33317 10.3679 5.63165 10.6663 5.99984 10.6663C6.36803 10.6663 6.6665 10.3679 6.6665 9.99967C6.6665 9.63148 6.36803 9.33301 5.99984 9.33301C5.63165 9.33301 5.33317 9.63148 5.33317 9.99967Z" fill="#FEFEFE"/>
<path d="M3.33317 9.99967C3.33317 10.3679 3.63165 10.6663 3.99984 10.6663C4.36803 10.6663 4.6665 10.3679 4.6665 9.99967C4.6665 9.63148 4.36803 9.33301 3.99984 9.33301C3.63165 9.33301 3.33317 9.63148 3.33317 9.99967Z" fill="#FEFEFE"/>
</g>
<defs>
<clipPath id="clip0_228_10221">
<rect width="16" height="16" fill="white"/>
</clipPath>
</defs>
</svg>
