<svg width="17" height="16" viewBox="0 0 17 16" fill="none" xmlns="http://www.w3.org/2000/svg">
<path d="M3.95811 15.4311H1.06814C0.613999 15.4311 0.242432 15.0595 0.242432 14.6054V6.3483C0.242432 5.89416 0.613999 5.5226 1.06814 5.5226H3.95811C4.41225 5.5226 4.78382 5.89416 4.78382 6.3483V14.6054C4.78382 15.0595 4.41225 15.4311 3.95811 15.4311ZM9.94448 0.568359H7.05451C6.60037 0.568359 6.2288 0.939927 6.2288 1.39407V14.6054C6.2288 15.0595 6.60037 15.4311 7.05451 15.4311H9.94448C10.3986 15.4311 10.7702 15.0595 10.7702 14.6054V1.39407C10.7702 0.939927 10.3986 0.568359 9.94448 0.568359ZM15.9309 7.17401H13.0409C12.5867 7.17401 12.2152 7.54558 12.2152 7.99972V14.6054C12.2152 15.0595 12.5867 15.4311 13.0409 15.4311H15.9309C16.385 15.4311 16.7566 15.0595 16.7566 14.6054V7.99972C16.7566 7.54558 16.385 7.17401 15.9309 7.17401Z" fill="#32D583"/>
</svg>
