<svg width="28" height="28" viewBox="0 0 28 28" fill="none" xmlns="http://www.w3.org/2000/svg">
<path d="M3.5 11.666C3.5 10.0552 4.80584 8.74935 6.41667 8.74935C8.0275 8.74935 9.33333 10.0552 9.33333 11.666V20.9993C9.33333 22.6102 8.0275 23.916 6.41667 23.916C4.80584 23.916 3.5 22.6102 3.5 20.9993V11.666Z" stroke="#FEFEFE" stroke-width="2"/>
<path d="M13.5047 5.47096L10.9024 9.69968C10.2037 10.835 9.85433 11.4027 9.64309 12.0248C9.57866 12.2146 9.52404 12.4075 9.47947 12.6029C9.33333 13.2434 9.33333 13.91 9.33333 15.2431V19.2493C9.33333 21.8267 11.4227 23.916 14 23.916H17.3948C19.6043 23.916 21.6242 22.6677 22.6123 20.6914L23.9522 18.0116C25.2759 15.3642 23.3508 12.2493 20.391 12.2493H19.5863C17.5691 12.2493 16.0266 10.4514 16.3333 8.45768L16.6169 6.61461C16.7745 5.59003 15.9818 4.66602 14.9451 4.66602C14.3578 4.66602 13.8125 4.97073 13.5047 5.47096Z" stroke="#FEFEFE" stroke-width="2"/>
</svg>
