<svg width="28" height="28" viewBox="0 0 28 28" fill="none" xmlns="http://www.w3.org/2000/svg">
<path d="M14.0002 11.666C15.2888 11.666 16.3335 12.7107 16.3335 13.9993C16.3335 15.288 15.2888 16.3327 14.0002 16.3327C12.7115 16.3327 11.6668 15.288 11.6668 13.9993C11.6668 12.7107 12.7115 11.666 14.0002 11.666Z" fill="#FEFEFE"/>
<path d="M4.66683 11.666C5.95549 11.666 7.00016 12.7107 7.00016 13.9993C7.00016 15.288 5.95549 16.3327 4.66683 16.3327C3.37817 16.3327 2.3335 15.288 2.3335 13.9993C2.3335 12.7107 3.37816 11.666 4.66683 11.666Z" fill="#FEFEFE"/>
<path d="M23.3335 11.666C24.6222 11.666 25.6668 12.7107 25.6668 13.9993C25.6668 15.288 24.6222 16.3327 23.3335 16.3327C22.0448 16.3327 21.0002 15.288 21.0002 13.9993C21.0002 12.7107 22.0448 11.666 23.3335 11.666Z" fill="#FEFEFE"/>
</svg>
