<svg width="28" height="28" viewBox="0 0 28 28" fill="none" xmlns="http://www.w3.org/2000/svg">
<path d="M13.6142 22.1096L14.1955 22.9234L13.6142 22.1096ZM13.6761 22.0656L13.1001 21.2482L13.6761 22.0656ZM16.9989 21.0008L17.0053 22.0007L16.9989 21.0008ZM8.62871 22.7626L9.55719 23.134L8.62871 22.7626ZM10.5684 24.2853L9.98715 23.4715L10.5684 24.2853ZM25.4312 16.8086L26.3908 17.09L25.4312 16.8086ZM21.4748 20.765L21.7562 21.7246L21.4748 20.765ZM5.51855 2.96978L5.97254 3.86079L5.51855 2.96978ZM2.96929 5.51904L3.8603 5.97303L2.96929 5.51904ZM22.4818 2.96978L22.0278 3.86079L22.4818 2.96978ZM25.031 5.51904L24.14 5.97303L25.031 5.51904ZM9.3335 13.0007C8.78121 13.0007 8.3335 13.4484 8.3335 14.0007C8.3335 14.5529 8.78121 15.0007 9.3335 15.0007V13.0007ZM18.6668 15.0007C19.2191 15.0007 19.6668 14.5529 19.6668 14.0007C19.6668 13.4484 19.2191 13.0007 18.6668 13.0007V15.0007ZM9.3335 8.33398C8.78121 8.33398 8.3335 8.7817 8.3335 9.33398C8.3335 9.88627 8.78121 10.334 9.3335 10.334L9.3335 8.33398ZM14.0002 10.334C14.5524 10.334 15.0002 9.88627 15.0002 9.33398C15.0002 8.7817 14.5524 8.33398 14.0002 8.33398V10.334ZM16.3335 1.33398H11.6668V3.33398H16.3335V1.33398ZM1.3335 11.6673V16.6004H3.3335V11.6673H1.3335ZM26.6668 13.0489V11.6673H24.6668V13.0489H26.6668ZM6.73376 22.0007H7.43581V20.0007H6.73376V22.0007ZM11.1496 25.099L14.1955 22.9234L13.033 21.2959L9.98715 23.4715L11.1496 25.099ZM17.0748 22.0007H17.7151V20.0007H17.0748V22.0007ZM14.1955 22.9234C14.2276 22.9005 14.2401 22.8915 14.2521 22.883L13.1001 21.2482C13.0816 21.2612 13.0631 21.2744 13.033 21.2959L14.1955 22.9234ZM17.0748 20.0007C17.0378 20.0007 17.0151 20.0006 16.9925 20.0008L17.0053 22.0007C17.02 22.0007 17.0354 22.0007 17.0748 22.0007V20.0007ZM14.2521 22.883C15.0583 22.3149 16.019 22.0071 17.0053 22.0007L16.9925 20.0008C15.5981 20.0097 14.2399 20.445 13.1001 21.2482L14.2521 22.883ZM7.43581 22.0007C7.63729 22.0007 7.77507 22.2041 7.70024 22.3912L9.55719 23.134C10.1575 21.6332 9.05222 20.0007 7.43581 20.0007V22.0007ZM7.70024 22.3912C6.85277 24.5099 9.29278 26.4253 11.1496 25.099L9.98715 23.4715C9.91143 23.5256 9.85432 23.5333 9.8126 23.531C9.76224 23.5283 9.70176 23.5077 9.64576 23.4638C9.58977 23.4198 9.55548 23.366 9.54083 23.3177C9.5287 23.2777 9.52263 23.2204 9.55719 23.134L7.70024 22.3912ZM24.6668 13.0489C24.6668 15.0899 24.6566 15.896 24.4716 16.5273L26.3908 17.09C26.677 16.1138 26.6668 14.9492 26.6668 13.0489H24.6668ZM17.7151 22.0007C19.6154 22.0007 20.7799 22.0108 21.7562 21.7246L21.1935 19.8054C20.5622 19.9905 19.7561 20.0007 17.7151 20.0007V22.0007ZM24.4716 16.5273C24.0084 18.1069 22.7731 19.3422 21.1935 19.8054L21.7562 21.7246C23.9895 21.0697 25.7359 19.3233 26.3908 17.09L24.4716 16.5273ZM1.3335 16.6004C1.3335 19.5829 3.75128 22.0007 6.73376 22.0007V20.0007C4.85585 20.0007 3.3335 18.4783 3.3335 16.6004H1.3335ZM11.6668 1.33398C10.0498 1.33398 8.77696 1.33321 7.75408 1.41678C6.71951 1.50131 5.85294 1.67707 5.06456 2.07877L5.97254 3.86079C6.43198 3.62669 7.00606 3.48456 7.91694 3.41014C8.83949 3.33476 10.0168 3.33398 11.6668 3.33398V1.33398ZM3.3335 11.6673C3.3335 10.0173 3.33427 8.83998 3.40965 7.91743C3.48407 7.00655 3.6262 6.43247 3.8603 5.97303L2.07828 5.06505C1.67659 5.85343 1.50082 6.72 1.41629 7.75456C1.33272 8.77745 1.3335 10.0503 1.3335 11.6673H3.3335ZM5.06456 2.07877C3.77879 2.73391 2.73342 3.77927 2.07828 5.06505L3.8603 5.97303C4.32369 5.06358 5.06309 4.32417 5.97254 3.86079L5.06456 2.07877ZM16.3335 3.33398C17.9835 3.33398 19.1608 3.33476 20.0834 3.41014C20.9943 3.48456 21.5683 3.62669 22.0278 3.86079L22.9358 2.07877C22.1474 1.67707 21.2808 1.50131 20.2463 1.41678C19.2234 1.33321 17.9505 1.33398 16.3335 1.33398V3.33398ZM26.6668 11.6673C26.6668 10.0503 26.6676 8.77745 26.584 7.75456C26.4995 6.72 26.3237 5.85343 25.922 5.06505L24.14 5.97303C24.3741 6.43247 24.5163 7.00655 24.5907 7.91743C24.666 8.83998 24.6668 10.0173 24.6668 11.6673H26.6668ZM22.0278 3.86079C22.9372 4.32417 23.6766 5.06358 24.14 5.97303L25.922 5.06505C25.2669 3.77928 24.2215 2.73391 22.9358 2.07877L22.0278 3.86079ZM9.3335 15.0007H18.6668V13.0007H9.3335V15.0007ZM9.3335 10.334L14.0002 10.334V8.33398L9.3335 8.33398L9.3335 10.334Z" fill="#FEFEFE"/>
</svg>
