<svg width="41" height="40" viewBox="0 0 41 40" fill="none" xmlns="http://www.w3.org/2000/svg">
<g opacity="0.7">
<path d="M18.0001 28.3327H23.0001C27.1667 28.3327 28.8334 26.666 28.8334 22.4993V17.4993C28.8334 13.3327 27.1667 11.666 23.0001 11.666H18.0001C13.8334 11.666 12.1667 13.3327 12.1667 17.4993V22.4993C12.1667 26.666 13.8334 28.3327 18.0001 28.3327Z" stroke="#0C1424" stroke-linecap="round" stroke-linejoin="round"/>
<path d="M18.0835 20.0002V18.7669C18.0835 17.1752 19.2085 16.5336 20.5835 17.3252L21.6502 17.9419L22.7168 18.5586C24.0918 19.3502 24.0918 20.6502 22.7168 21.4419L21.6502 22.0586L20.5835 22.6752C19.2085 23.4669 18.0835 22.8169 18.0835 21.2336V20.0002Z" stroke="#0C1424" stroke-miterlimit="10" stroke-linecap="round" stroke-linejoin="round"/>
</g>
</svg>
