<svg width="28" height="28" viewBox="0 0 28 28" fill="none" xmlns="http://www.w3.org/2000/svg">
<path d="M10.5001 14.0007C10.5001 15.6115 9.19425 16.9173 7.58341 16.9173C5.97258 16.9173 4.66675 15.6115 4.66675 14.0007C4.66675 12.3898 5.97258 11.084 7.58341 11.084C9.19425 11.084 10.5001 12.3898 10.5001 14.0007Z" stroke="#0C1424" stroke-width="1.5"/>
<path d="M16.3333 7.58398L10.5 11.6673" stroke="#0C1424" stroke-width="1.5" stroke-linecap="round"/>
<path d="M16.3333 20.416L10.5 16.3327" stroke="#0C1424" stroke-width="1.5" stroke-linecap="round"/>
<path d="M22.1666 21.5827C22.1666 23.1935 20.8607 24.4993 19.2499 24.4993C17.6391 24.4993 16.3333 23.1935 16.3333 21.5827C16.3333 19.9719 17.6391 18.666 19.2499 18.666C20.8607 18.666 22.1666 19.9719 22.1666 21.5827Z" stroke="#0C1424" stroke-width="1.5"/>
<path d="M22.1666 6.41667C22.1666 8.0275 20.8607 9.33333 19.2499 9.33333C17.6391 9.33333 16.3333 8.0275 16.3333 6.41667C16.3333 4.80584 17.6391 3.5 19.2499 3.5C20.8607 3.5 22.1666 4.80584 22.1666 6.41667Z" stroke="#0C1424" stroke-width="1.5"/>
</svg>
