<svg width="24" height="22" viewBox="0 0 24 22" fill="none" xmlns="http://www.w3.org/2000/svg">
<path d="M1.5 8.66602C1.5 7.05519 2.80584 5.74935 4.41667 5.74935C6.0275 5.74935 7.33333 7.05519 7.33333 8.66602V17.9993C7.33333 19.6102 6.0275 20.916 4.41667 20.916C2.80584 20.916 1.5 19.6102 1.5 17.9993V8.66602Z" stroke="#FEFEFE" stroke-width="2"/>
<path d="M11.5047 2.47096L8.90236 6.69968C8.20368 7.83504 7.85433 8.40272 7.64309 9.02482C7.57866 9.21458 7.52404 9.40753 7.47947 9.60291C7.33333 10.2434 7.33333 10.91 7.33333 12.2431V16.2493C7.33333 18.8267 9.42267 20.916 12 20.916H15.3948C17.6043 20.916 19.6242 19.6677 20.6123 17.6914L21.9522 15.0116C23.2759 12.3642 21.3508 9.24935 18.391 9.24935H17.5863C15.5691 9.24935 14.0266 7.45136 14.3333 5.45768L14.6169 3.61461C14.7745 2.59003 13.9818 1.66602 12.9451 1.66602C12.3578 1.66602 11.8125 1.97073 11.5047 2.47096Z" stroke="#FEFEFE" stroke-width="2"/>
</svg>
