<svg width="24" height="6" viewBox="0 0 24 6" fill="none" xmlns="http://www.w3.org/2000/svg">
<path d="M12.0002 0.666016C13.2888 0.666016 14.3335 1.71068 14.3335 2.99935C14.3335 4.28801 13.2888 5.33268 12.0002 5.33268C10.7115 5.33268 9.66683 4.28801 9.66683 2.99935C9.66683 1.71068 10.7115 0.666016 12.0002 0.666016Z" fill="#FEFEFE"/>
<path d="M2.66683 0.666016C3.95549 0.666016 5.00016 1.71068 5.00016 2.99935C5.00016 4.28801 3.95549 5.33268 2.66683 5.33268C1.37817 5.33268 0.333496 4.28801 0.333496 2.99935C0.333496 1.71068 1.37816 0.666016 2.66683 0.666016Z" fill="#FEFEFE"/>
<path d="M21.3335 0.666016C22.6222 0.666016 23.6668 1.71068 23.6668 2.99935C23.6668 4.28801 22.6222 5.33268 21.3335 5.33268C20.0448 5.33268 19.0002 4.28801 19.0002 2.99935C19.0002 1.71068 20.0448 0.666016 21.3335 0.666016Z" fill="#FEFEFE"/>
</svg>
