<svg width="26" height="25" viewBox="0 0 26 25" fill="none" xmlns="http://www.w3.org/2000/svg">
<path d="M12.614 21.1096L13.1952 21.9234L12.614 21.1096ZM12.6759 21.0656L12.0999 20.2482L12.6759 21.0656ZM15.9986 20.0008L16.005 21.0007L15.9986 20.0008ZM7.62847 21.7626L8.55695 22.134L7.62847 21.7626ZM9.56814 23.2853L8.98691 22.4715L9.56814 23.2853ZM24.4309 15.8086L25.3905 16.09L24.4309 15.8086ZM20.4746 19.765L20.756 20.7246L20.4746 19.765ZM4.51831 1.96978L4.9723 2.86079L4.51831 1.96978ZM1.96905 4.51904L2.86005 4.97303L1.96905 4.51904ZM21.4815 1.96978L21.0275 2.86079L21.4815 1.96978ZM24.0308 4.51904L23.1398 4.97303L24.0308 4.51904ZM8.33325 12.0007C7.78097 12.0007 7.33325 12.4484 7.33325 13.0007C7.33325 13.5529 7.78097 14.0007 8.33325 14.0007V12.0007ZM17.6666 14.0007C18.2189 14.0007 18.6666 13.5529 18.6666 13.0007C18.6666 12.4484 18.2189 12.0007 17.6666 12.0007V14.0007ZM8.33325 7.33398C7.78097 7.33398 7.33325 7.7817 7.33325 8.33398C7.33325 8.88627 7.78097 9.33398 8.33325 9.33398L8.33325 7.33398ZM12.9999 9.33398C13.5522 9.33398 13.9999 8.88627 13.9999 8.33398C13.9999 7.7817 13.5522 7.33398 12.9999 7.33398V9.33398ZM15.3333 0.333984H10.6666V2.33398H15.3333V0.333984ZM0.333252 10.6673V15.6004H2.33325V10.6673H0.333252ZM25.6666 12.0489V10.6673H23.6666V12.0489H25.6666ZM5.73352 21.0007H6.43557V19.0007H5.73352V21.0007ZM10.1494 24.099L13.1952 21.9234L12.0328 20.2959L8.98691 22.4715L10.1494 24.099ZM16.0746 21.0007H16.7148V19.0007H16.0746V21.0007ZM13.1952 21.9234C13.2273 21.9005 13.2398 21.8915 13.2519 21.883L12.0999 20.2482C12.0814 20.2612 12.0628 20.2744 12.0328 20.2959L13.1952 21.9234ZM16.0746 19.0007C16.0376 19.0007 16.0148 19.0006 15.9922 19.0008L16.005 21.0007C16.0198 21.0007 16.0352 21.0007 16.0746 21.0007V19.0007ZM13.2519 21.883C14.0581 21.3149 15.0188 21.0071 16.005 21.0007L15.9922 19.0008C14.5979 19.0097 13.2397 19.445 12.0999 20.2482L13.2519 21.883ZM6.43557 21.0007C6.63705 21.0007 6.77482 21.2041 6.69999 21.3912L8.55695 22.134C9.15727 20.6332 8.05198 19.0007 6.43557 19.0007V21.0007ZM6.69999 21.3912C5.85252 23.5099 8.29254 25.4253 10.1494 24.099L8.98691 22.4715C8.91118 22.5256 8.85408 22.5333 8.81236 22.531C8.76199 22.5283 8.70151 22.5077 8.64552 22.4638C8.58952 22.4198 8.55523 22.366 8.54059 22.3177C8.52846 22.2777 8.52239 22.2204 8.55695 22.134L6.69999 21.3912ZM23.6666 12.0489C23.6666 14.0899 23.6564 14.896 23.4713 15.5273L25.3905 16.09C25.6768 15.1138 25.6666 13.9492 25.6666 12.0489H23.6666ZM16.7148 21.0007C18.6151 21.0007 19.7797 21.0108 20.756 20.7246L20.1932 18.8054C19.562 18.9905 18.7559 19.0007 16.7148 19.0007V21.0007ZM23.4713 15.5273C23.0081 17.1069 21.7728 18.3422 20.1932 18.8054L20.756 20.7246C22.9892 20.0697 24.7357 18.3233 25.3905 16.09L23.4713 15.5273ZM0.333252 15.6004C0.333252 18.5829 2.75103 21.0007 5.73352 21.0007V19.0007C3.8556 19.0007 2.33325 17.4783 2.33325 15.6004H0.333252ZM10.6666 0.333984C9.0496 0.333984 7.77672 0.333207 6.75383 0.41678C5.71927 0.501307 4.85269 0.677075 4.06432 1.07877L4.9723 2.86079C5.43174 2.62669 6.00582 2.48456 6.9167 2.41014C7.83925 2.33476 9.0166 2.33398 10.6666 2.33398V0.333984ZM2.33325 10.6673C2.33325 9.01733 2.33403 7.83998 2.40941 6.91743C2.48383 6.00655 2.62596 5.43247 2.86005 4.97303L1.07804 4.06505C0.676342 4.85343 0.500574 5.72 0.416047 6.75456C0.332474 7.77745 0.333252 9.05033 0.333252 10.6673H2.33325ZM4.06432 1.07877C2.77854 1.73391 1.73318 2.77927 1.07804 4.06505L2.86005 4.97303C3.32344 4.06358 4.06285 3.32417 4.9723 2.86079L4.06432 1.07877ZM15.3333 2.33398C16.9832 2.33398 18.1606 2.33476 19.0831 2.41014C19.994 2.48456 20.5681 2.62669 21.0275 2.86079L21.9355 1.07877C21.1471 0.677075 20.2806 0.501307 19.246 0.41678C18.2231 0.333207 16.9502 0.333984 15.3333 0.333984V2.33398ZM25.6666 10.6673C25.6666 9.05033 25.6674 7.77745 25.5838 6.75456C25.4993 5.72 25.3235 4.85343 24.9218 4.06505L23.1398 4.97303C23.3739 5.43247 23.516 6.00655 23.5904 6.91743C23.6658 7.83998 23.6666 9.01733 23.6666 10.6673H25.6666ZM21.0275 2.86079C21.937 3.32417 22.6764 4.06358 23.1398 4.97303L24.9218 4.06505C24.2667 2.77928 23.2213 1.73391 21.9355 1.07877L21.0275 2.86079ZM8.33325 14.0007H17.6666V12.0007H8.33325V14.0007ZM8.33325 9.33398L12.9999 9.33398V7.33398L8.33325 7.33398L8.33325 9.33398Z" fill="#FEFEFE"/>
</svg>
